<svg width="144" height="40" viewBox="0 0 144 40" fill="none" xmlns="http://www.w3.org/2000/svg">
<path fill-rule="evenodd" clip-rule="evenodd" d="M65.0332 36.5819V30.6546C65.0332 30.5818 65.0514 30.5273 65.1059 30.4909C65.1605 30.4546 65.2151 30.4364 65.2878 30.4364H68.3985C68.5441 30.4364 68.6168 30.5273 68.6168 30.6909C68.6168 30.7637 68.5986 30.8364 68.5623 30.8909C68.5259 30.9455 68.4713 30.9819 68.3985 30.9819H65.5971V33.3819H66.9614C67.0342 33.3819 67.0888 33.4 67.1252 33.4546C67.1615 33.5091 67.1797 33.5637 67.1797 33.6364C67.1797 33.8 67.107 33.8728 66.9614 33.8728H65.5971V36.2909H68.3985C68.4713 36.2909 68.5077 36.3091 68.5623 36.3637C68.5986 36.4182 68.6168 36.4728 68.6168 36.5637C68.6168 36.7455 68.5441 36.8182 68.3985 36.8182H65.2878C65.2151 36.8182 65.1605 36.8 65.1059 36.7637C65.0514 36.6909 65.0332 36.6364 65.0332 36.5819ZM74.7285 36.5273C74.7285 36.4841 74.7399 36.4524 74.7537 36.414L74.7604 36.3951L74.7649 36.3818L76.2747 33.6L74.8012 30.8364C74.7649 30.7637 74.7467 30.7091 74.7467 30.6546C74.7467 30.5818 74.7831 30.5273 74.8558 30.4727C74.9286 30.4182 75.0013 30.4 75.0923 30.4C75.1833 30.4 75.2924 30.4909 75.3834 30.6909L76.6386 33.0909L77.8938 30.6909C78.0029 30.4909 78.0939 30.4 78.1848 30.4C78.2758 30.4 78.3667 30.4182 78.4213 30.4727C78.4941 30.5273 78.5305 30.5818 78.5305 30.6546C78.5305 30.7091 78.5123 30.7818 78.4759 30.8364L76.9842 33.6L78.4941 36.4L78.4989 36.414L78.5054 36.4322C78.5192 36.4706 78.5305 36.5023 78.5305 36.5455C78.5305 36.6182 78.4941 36.6909 78.4213 36.7455C78.3485 36.8 78.2758 36.8364 78.1848 36.8364C78.0939 36.8364 78.0029 36.7455 77.9119 36.5637L76.6204 34.1273L75.3288 36.5637C75.2378 36.7455 75.1469 36.8364 75.0559 36.8364C74.9832 36.8364 74.8922 36.8 74.8194 36.7455C74.7649 36.6727 74.7285 36.6 74.7285 36.5273ZM84.9531 34.9818V32.2728C84.9531 31.6364 85.1168 31.1637 85.4624 30.8728C85.8081 30.5637 86.2447 30.4182 86.7904 30.4182C87.3361 30.4182 87.7727 30.5637 88.1002 30.8364C88.4276 31.1273 88.5913 31.4546 88.5913 31.8728C88.5913 32.0182 88.5731 32.1091 88.5186 32.1455C88.4822 32.2 88.4094 32.2182 88.3003 32.2182C88.1184 32.2182 88.0274 32.1455 88.0092 32C88.0092 31.9224 87.996 31.858 87.9807 31.7842L87.9728 31.7455C87.9546 31.6728 87.9183 31.5637 87.8637 31.4728C87.8222 31.3898 87.7701 31.3278 87.7156 31.2629L87.6917 31.2344C87.6862 31.2278 87.6808 31.2211 87.6753 31.2144C87.6714 31.2096 87.6675 31.2049 87.6636 31.2C87.5908 31.1091 87.4635 31.0546 87.3179 31.0182C87.1724 30.9637 86.9905 30.9455 86.7904 30.9455C85.9536 30.9455 85.5352 31.3818 85.5352 32.2728V34.9818C85.5352 35.8728 85.9718 36.3091 86.8268 36.3091C87.0633 36.3091 87.2816 36.2728 87.4453 36.2C87.609 36.1273 87.7363 36.0364 87.8091 35.9091C87.8819 35.7818 87.9364 35.6728 87.9546 35.5818C87.9561 35.5743 87.9578 35.5667 87.9595 35.5589C87.9618 35.5484 87.9644 35.5377 87.967 35.5266L87.9776 35.4842C87.9951 35.4142 88.0153 35.3333 88.0274 35.2364C88.0456 35.0909 88.1366 35.0182 88.3185 35.0182C88.4276 35.0182 88.5004 35.0364 88.5368 35.0909C88.5731 35.1455 88.6095 35.2364 88.6095 35.3818C88.6095 35.8 88.4458 36.1455 88.1184 36.4364C87.7909 36.7273 87.3543 36.8728 86.7904 36.8728C86.2629 36.8728 85.8263 36.7273 85.4806 36.4182C85.135 36.0909 84.9531 35.6182 84.9531 34.9818ZM95.3222 36.5818V30.6364C95.3222 30.4909 95.4132 30.4182 95.6133 30.4182C95.8134 30.4182 95.9043 30.4909 95.9043 30.6364V33.2546H98.4329V30.6364C98.4329 30.4909 98.5239 30.4182 98.724 30.4182C98.9241 30.4182 99.0151 30.4909 99.0151 30.6364V36.5818C99.0151 36.6546 98.9787 36.7091 98.9241 36.7455C98.8695 36.7818 98.7968 36.8 98.724 36.8C98.6512 36.8 98.5785 36.7818 98.5239 36.7455C98.4693 36.7091 98.4329 36.6546 98.4329 36.5818V33.7455H95.9043V36.5818C95.9043 36.6546 95.868 36.7091 95.8134 36.7455C95.7588 36.7818 95.686 36.8 95.6133 36.8C95.5405 36.8 95.4678 36.7818 95.4132 36.7455C95.3404 36.6909 95.3222 36.6364 95.3222 36.5818ZM105.563 36.5636V36.5091L107.382 30.5818C107.418 30.4546 107.528 30.3818 107.728 30.3818C107.91 30.3818 108.037 30.4546 108.073 30.5818L109.892 36.5273V36.5636C109.892 36.6364 109.856 36.6909 109.783 36.7273C109.71 36.7818 109.638 36.8 109.547 36.8C109.438 36.8 109.365 36.7455 109.328 36.6546L108.928 35.3091H106.509L106.109 36.6546C106.09 36.7455 106.018 36.8 105.872 36.8C105.781 36.8 105.708 36.7818 105.636 36.7273C105.599 36.6909 105.563 36.6182 105.563 36.5636ZM108.783 34.8182L107.728 31.2909L106.673 34.8182H108.783ZM116.479 36.5818V30.6546C116.479 30.5091 116.57 30.4364 116.77 30.4364C116.934 30.4364 117.079 30.5637 117.225 30.8364L119.59 35.4727V30.6364C119.59 30.4909 119.681 30.4182 119.881 30.4182C120.081 30.4182 120.172 30.4909 120.172 30.6364V36.5818C120.172 36.6546 120.135 36.7091 120.081 36.7455C120.026 36.7818 119.953 36.8 119.881 36.8C119.735 36.8 119.608 36.6909 119.499 36.4727L117.079 31.7455V36.5818C117.079 36.6546 117.043 36.7091 116.988 36.7455C116.934 36.7818 116.861 36.8 116.788 36.8C116.715 36.8 116.643 36.7818 116.588 36.7455C116.497 36.6909 116.479 36.6364 116.479 36.5818ZM127.12 34.9818V32.2727C127.12 31.6364 127.283 31.1637 127.611 30.8546C127.938 30.5637 128.375 30.4 128.92 30.4C129.466 30.4 129.921 30.5455 130.248 30.8182C130.576 31.1091 130.74 31.4546 130.74 31.9091C130.74 32.1091 130.649 32.2 130.449 32.2C130.267 32.2 130.157 32.1273 130.157 31.9818C130.085 31.2727 129.666 30.9273 128.92 30.9273C128.102 30.9273 127.683 31.3637 127.683 32.2546V34.9637C127.683 35.4182 127.793 35.7455 128.011 35.9637C128.229 36.1818 128.538 36.2909 128.92 36.2909C129.302 36.2909 129.63 36.1818 129.83 35.9637C130.048 35.7455 130.157 35.4 130.157 34.9637V33.9273H128.993C128.92 33.9273 128.884 33.9091 128.848 33.8546C128.811 33.8 128.793 33.7455 128.793 33.6727C128.793 33.6 128.811 33.5455 128.848 33.5091C128.884 33.4727 128.939 33.4364 128.993 33.4364H130.521C130.667 33.4364 130.74 33.5091 130.74 33.6546V34.9637C130.74 35.6182 130.576 36.0909 130.248 36.3818C129.921 36.6727 129.484 36.8364 128.92 36.8364C128.357 36.8364 127.92 36.6909 127.592 36.3818C127.283 36.1091 127.12 35.6364 127.12 34.9818ZM137.635 36.5819V30.6546C137.635 30.5818 137.653 30.5273 137.708 30.4909C137.762 30.4546 137.817 30.4364 137.89 30.4364H141.001C141.146 30.4364 141.219 30.5273 141.219 30.6909C141.219 30.7637 141.201 30.8364 141.164 30.8909C141.128 30.9455 141.073 30.9819 141.001 30.9819H138.199V33.3819H139.563C139.636 33.3819 139.691 33.4 139.727 33.4546C139.764 33.5091 139.782 33.5637 139.782 33.6364C139.782 33.8 139.709 33.8728 139.563 33.8728H138.199V36.2909H141.001C141.073 36.2909 141.11 36.3091 141.164 36.3637C141.201 36.4182 141.219 36.4728 141.219 36.5637C141.219 36.7455 141.146 36.8182 141.001 36.8182H137.89C137.817 36.8182 137.762 36.8 137.708 36.7637C137.7 36.7474 137.691 36.7321 137.684 36.7174C137.657 36.6665 137.635 36.6242 137.635 36.5819ZM64.5781 25.6546V2.80002C64.5781 2.58184 64.669 2.40002 64.8691 2.25456C65.0692 2.10911 65.3057 2.03638 65.615 2.03638C65.906 2.03638 66.1607 2.10911 66.3608 2.25456C66.5609 2.40002 66.6701 2.58184 66.6701 2.80002V13.5818C67.0521 12.8727 67.616 12.2727 68.3619 11.8182C69.1077 11.3455 69.9627 11.1273 70.945 11.1273C72.5277 11.1273 73.8738 11.7091 75.0017 12.8909C76.1295 14.0546 76.6753 15.4727 76.6753 17.1273V20.6182C76.6753 22.2182 76.0931 23.6364 74.9653 24.8727C73.8192 26.1091 72.4913 26.7091 70.9996 26.7091C70.0355 26.7091 69.1441 26.4727 68.3255 25.9818C67.5069 25.4909 66.9429 24.9091 66.5973 24.2182V25.6546C66.5973 25.8727 66.5064 26.0727 66.3063 26.2364C66.1061 26.4182 65.8697 26.4909 65.5968 26.4909C65.3239 26.4909 65.0692 26.4 64.8691 26.2364C64.6872 26.0727 64.5781 25.8727 64.5781 25.6546ZM66.6701 21.6C66.6701 22.1818 67.0703 22.8364 67.8707 23.6182C68.6711 24.3818 69.5807 24.7636 70.6176 24.7636C71.6545 24.7636 72.6186 24.3455 73.419 23.4909C74.2194 22.6364 74.6015 21.6909 74.6015 20.6182V17.1273C74.6015 16.0909 74.2013 15.1455 73.419 14.3273C72.6186 13.4909 71.6909 13.0909 70.5994 13.0909C69.5807 13.0909 68.6529 13.4546 67.8707 14.2C67.0521 14.9455 66.6701 15.9091 66.6701 17.1273V21.6ZM80.768 6.41818C80.4951 6.14546 80.3496 5.83637 80.3496 5.47273C80.3496 5.10909 80.4951 4.8 80.768 4.54546C81.0408 4.29091 81.3865 4.16364 81.7867 4.16364C82.1869 4.16364 82.4961 4.29091 82.769 4.54546C83.0419 4.8 83.1692 5.10909 83.1692 5.47273C83.1692 5.83637 83.0419 6.14546 82.769 6.41818C82.4961 6.69091 82.1687 6.81818 81.7867 6.81818C81.4047 6.81818 81.0408 6.69091 80.768 6.41818ZM80.768 25.6545V12.0909C80.768 11.8727 80.8589 11.6909 81.059 11.5454C81.2591 11.4 81.4956 11.3273 81.8049 11.3273C82.0959 11.3273 82.3506 11.4 82.5507 11.5454C82.7508 11.6909 82.86 11.8727 82.86 12.0909V25.6727C82.86 25.8909 82.7508 26.0727 82.5325 26.2545C82.3142 26.4182 82.0777 26.5091 81.7867 26.5091C81.5138 26.5091 81.2591 26.4182 81.059 26.2545C80.8589 26.0545 80.768 25.8727 80.768 25.6545ZM87.4628 21.7818V4.8909C87.4628 4.67272 87.572 4.4909 87.7903 4.34544C88.0086 4.19999 88.2451 4.12726 88.4998 4.12726C88.7726 4.12726 89.0273 4.19999 89.2456 4.34544C89.4639 4.4909 89.573 4.67272 89.573 4.8909V11.3091H93.7206C93.9389 11.3091 94.1027 11.4 94.2482 11.5636C94.3937 11.7454 94.4483 11.9454 94.4483 12.1818C94.4483 12.4182 94.3755 12.6363 94.2482 12.8C94.1027 12.9818 93.9389 13.0545 93.7206 13.0545H89.573V21.7091C89.573 22.7454 89.7913 23.4727 90.2279 23.8909C90.6645 24.3091 91.4467 24.5091 92.5564 24.5091H93.4478C93.7206 24.5091 93.9571 24.6 94.139 24.8C94.321 24.9818 94.4119 25.2182 94.4119 25.4727C94.4119 25.7454 94.321 25.9636 94.139 26.1636C93.9571 26.3636 93.7206 26.4545 93.4478 26.4545H92.5564C89.1546 26.4909 87.4628 24.9273 87.4628 21.7818ZM97.705 25.6545V2.78183C97.705 2.56365 97.796 2.38183 97.9961 2.23637C98.1962 2.09092 98.4327 2.01819 98.7419 2.01819C99.033 2.01819 99.2876 2.09092 99.4876 2.23637C99.6876 2.38183 99.7966 2.56365 99.7966 2.78183V18.4182L107.638 11.4545C107.856 11.3273 108.02 11.2545 108.111 11.2545C108.366 11.2545 108.602 11.3636 108.838 11.5636C109.057 11.7636 109.184 12 109.184 12.2545C109.184 12.5091 109.111 12.7091 108.966 12.8364L104.254 16.9818L109.803 25.1091C109.894 25.2727 109.93 25.4364 109.93 25.5636C109.93 25.8 109.821 26.0364 109.584 26.2727C109.348 26.5091 109.093 26.6182 108.82 26.6182C108.566 26.6182 108.347 26.4909 108.184 26.2364L102.781 18.3091L99.8336 20.9091V25.6909C99.8336 25.9091 99.7246 26.0909 99.5246 26.2727C99.3236 26.4364 99.0694 26.5273 98.7783 26.5273C98.5055 26.5273 98.2508 26.4364 98.0507 26.2727C97.8142 26.0545 97.705 25.8727 97.705 25.6545ZM112.84 20.6909V12.1091C112.84 11.9091 112.949 11.7273 113.149 11.5636C113.35 11.4 113.604 11.3091 113.895 11.3091C114.15 11.3091 114.386 11.4 114.605 11.5636C114.823 11.7273 114.932 11.9091 114.932 12.1091V20.6545C114.932 21.7273 115.332 22.6727 116.115 23.5091C116.915 24.3454 117.843 24.7636 118.934 24.7636C120.026 24.7636 120.972 24.3454 121.754 23.5091C122.536 22.6727 122.936 21.7273 122.936 20.6545V12.0727C122.936 11.8545 123.045 11.6727 123.264 11.5273C123.482 11.3818 123.719 11.3091 124.01 11.3091C124.282 11.3091 124.537 11.3818 124.737 11.5273C124.937 11.6727 125.047 11.8545 125.047 12.0727V20.6727C125.047 22.2727 124.446 23.6909 123.227 24.8909C122.027 26.0909 120.59 26.7091 118.934 26.7091C117.279 26.7091 115.824 26.1091 114.623 24.8909C113.441 23.6909 112.84 22.2909 112.84 20.6909ZM129.557 25.6546V2.80002C129.557 2.58184 129.648 2.40002 129.848 2.25456C130.048 2.10911 130.285 2.03638 130.594 2.03638C130.885 2.03638 131.14 2.10911 131.34 2.25456C131.54 2.40002 131.649 2.58184 131.649 2.80002V13.5818C132.031 12.8727 132.595 12.2727 133.341 11.8182C134.087 11.3455 134.942 11.1273 135.924 11.1273C137.507 11.1273 138.871 11.7091 139.981 12.8909C141.108 14.0727 141.672 15.4727 141.672 17.1273V20.6182C141.672 22.2182 141.108 23.6364 139.962 24.8727C138.816 26.1091 137.488 26.7091 135.997 26.7091C135.033 26.7091 134.141 26.4727 133.323 25.9818C132.504 25.4909 131.94 24.9091 131.594 24.2182V25.6546C131.594 25.8727 131.503 26.0727 131.303 26.2364C131.103 26.4182 130.867 26.4909 130.594 26.4909C130.321 26.4909 130.066 26.4 129.866 26.2364C129.666 26.0727 129.557 25.8727 129.557 25.6546ZM131.649 21.6C131.649 22.1818 132.049 22.8364 132.85 23.6182C133.65 24.4 134.56 24.7636 135.596 24.7636C136.633 24.7636 137.598 24.3455 138.398 23.4909C139.198 22.6364 139.58 21.6909 139.58 20.6182V17.1273C139.58 16.0909 139.18 15.1455 138.398 14.3273C137.598 13.4909 136.67 13.0909 135.578 13.0909C134.56 13.0909 133.632 13.4546 132.85 14.2C132.049 14.9455 131.667 15.9273 131.667 17.1455V21.6H131.649Z" fill="#3A433B"/>
<path d="M30.9064 14.5091L18.4454 2L18.2089 2.23637L1 19.3636L1.03638 19.4L18.4817 37C18.4817 37 21.738 32.7091 18.5363 29.4909C17.6881 28.6431 16.3211 27.2701 14.7691 25.7111C12.7263 23.6592 10.363 21.2854 8.44022 19.3636L18.3726 9.47273C20.5372 11.6541 22.9699 14.0858 23.4719 14.5876L23.4843 14.6C27.8321 18.9636 30.9064 14.5091 30.9064 14.5091Z" fill="#02D767"/>
<path d="M18.4144 22.9491C20.3736 22.9491 21.9617 21.3617 21.9617 19.4036C21.9617 17.4455 20.3736 15.8581 18.4144 15.8581C16.4553 15.8581 14.8671 17.4455 14.8671 19.4036C14.8671 21.3617 16.4553 22.9491 18.4144 22.9491Z" fill="#02D767"/>
<path d="M55.9003 19.4545L38.5095 2C38.5095 2 35.3078 6.16364 38.3457 9.20001C40.2376 11.0909 45.1675 16.0364 48.6056 19.4909L38.4549 29.5818C36.9268 28.0545 35.1805 26.3091 33.7252 24.8364C30.3598 21.4545 25.8847 24.5091 25.8847 24.5091L38.2912 36.9455L38.6914 36.5455L55.9003 19.4545Z" fill="#02D767"/>
<path d="M41.0398 21.9636C42.4223 20.5818 42.4223 18.3273 41.058 16.9454C39.6754 15.5636 37.4197 15.5636 36.0372 16.9273C34.6547 18.3091 34.6547 20.5636 36.019 21.9454C37.3833 23.3273 39.6573 23.3454 41.0398 21.9636Z" fill="#02D767"/>
</svg>
